<svg width="257" height="33" viewBox="0 0 257 33" fill="none" xmlns="http://www.w3.org/2000/svg">
<path d="M6.58502 0.905029V27.14H19.05L18.375 32H0.64502V0.905029H6.58502Z" fill="#270603"/>
<path d="M31.8061 7.52003C35.3161 7.52003 38.0461 8.64503 39.9961 10.895C41.9761 13.115 42.9661 16.175 42.9661 20.075C42.9661 22.565 42.5161 24.77 41.6161 26.69C40.7161 28.58 39.4261 30.05 37.7461 31.1C36.0661 32.15 34.0711 32.675 31.7611 32.675C28.2511 32.675 25.5061 31.565 23.5261 29.345C21.5461 27.095 20.5561 24.005 20.5561 20.075C20.5561 17.585 21.0061 15.395 21.9061 13.505C22.8061 11.615 24.0961 10.145 25.7761 9.09503C27.4861 8.04503 29.4961 7.52003 31.8061 7.52003ZM31.8061 11.885C28.3561 11.885 26.6311 14.615 26.6311 20.075C26.6311 22.895 27.0511 24.98 27.8911 26.33C28.7611 27.65 30.0511 28.31 31.7611 28.31C33.4711 28.31 34.7461 27.635 35.5861 26.285C36.4561 24.935 36.8911 22.865 36.8911 20.075C36.8911 17.285 36.4561 15.23 35.5861 13.91C34.7461 12.56 33.4861 11.885 31.8061 11.885Z" fill="#270603"/>
<path d="M60.1104 7.56503C60.9804 7.56503 61.7754 7.67003 62.4954 7.88003L61.5054 13.46C60.7854 13.28 60.0804 13.19 59.3904 13.19C57.9804 13.19 56.8704 13.7 56.0604 14.72C55.2504 15.71 54.6054 17.24 54.1254 19.31V32H48.3654V8.19503H53.3604L53.9004 12.875C54.4704 11.165 55.2954 9.86003 56.3754 8.96003C57.4554 8.03003 58.7004 7.56503 60.1104 7.56503Z" fill="#270603"/>
<path d="M84.2431 19.535C84.2431 19.835 84.1981 20.615 84.1081 21.875H69.1681C69.3481 24.185 69.9481 25.835 70.9681 26.825C71.9881 27.815 73.3381 28.31 75.0181 28.31C76.0681 28.31 77.0581 28.145 77.9881 27.815C78.9181 27.455 79.9081 26.915 80.9581 26.195L83.3431 29.48C80.7031 31.61 77.7631 32.675 74.5231 32.675C70.8931 32.675 68.0881 31.565 66.1081 29.345C64.1581 27.125 63.1831 24.095 63.1831 20.255C63.1831 17.825 63.6031 15.65 64.4431 13.73C65.2831 11.78 66.4981 10.265 68.0881 9.18503C69.6781 8.07503 71.5681 7.52003 73.7581 7.52003C77.0881 7.52003 79.6681 8.58503 81.4981 10.715C83.3281 12.815 84.2431 15.755 84.2431 19.535ZM78.5281 17.87C78.5281 13.7 76.9831 11.615 73.8931 11.615C72.4831 11.615 71.3731 12.14 70.5631 13.19C69.7831 14.21 69.3181 15.86 69.1681 18.14H78.5281V17.87Z" fill="#270603"/>
<path d="M102.1 7.52003C104.23 7.52003 105.88 8.16503 107.05 9.45503C108.25 10.715 108.85 12.485 108.85 14.765V32H103.09V15.665C103.09 14.255 102.835 13.265 102.325 12.695C101.845 12.125 101.125 11.84 100.165 11.84C99.1753 11.84 98.2753 12.155 97.4653 12.785C96.6853 13.385 95.9203 14.27 95.1703 15.44V32H89.4103V8.19503H94.4053L94.8553 11.3C96.8053 8.78003 99.2203 7.52003 102.1 7.52003Z" fill="#270603"/>
<path d="M133.153 25.7C133.153 26.63 133.288 27.32 133.558 27.77C133.858 28.19 134.323 28.52 134.953 28.76L133.738 32.585C132.388 32.465 131.278 32.135 130.408 31.595C129.568 31.055 128.923 30.23 128.473 29.12C127.663 30.32 126.643 31.22 125.413 31.82C124.213 32.39 122.863 32.675 121.363 32.675C118.993 32.675 117.118 32 115.738 30.65C114.358 29.3 113.668 27.53 113.668 25.34C113.668 22.76 114.598 20.795 116.458 19.445C118.348 18.065 121.033 17.375 124.513 17.375H127.483V16.025C127.483 14.495 127.123 13.43 126.403 12.83C125.713 12.2 124.588 11.885 123.028 11.885C121.288 11.885 119.188 12.305 116.728 13.145L115.378 9.23003C118.348 8.09003 121.228 7.52003 124.018 7.52003C130.108 7.52003 133.153 10.25 133.153 15.71V25.7ZM122.893 28.49C124.843 28.49 126.373 27.515 127.483 25.565V20.75H125.098C121.378 20.75 119.518 22.13 119.518 24.89C119.518 26.03 119.803 26.915 120.373 27.545C120.943 28.175 121.783 28.49 122.893 28.49Z" fill="#270603"/>
<path d="M171.533 0.905029L170.903 5.63003H162.803V32H156.818V5.63003H148.448V0.905029H171.533Z" fill="#270603"/>
<path d="M182.495 7.52003C186.005 7.52003 188.735 8.64503 190.685 10.895C192.665 13.115 193.655 16.175 193.655 20.075C193.655 22.565 193.205 24.77 192.305 26.69C191.405 28.58 190.115 30.05 188.435 31.1C186.755 32.15 184.76 32.675 182.45 32.675C178.94 32.675 176.195 31.565 174.215 29.345C172.235 27.095 171.245 24.005 171.245 20.075C171.245 17.585 171.695 15.395 172.595 13.505C173.495 11.615 174.785 10.145 176.465 9.09503C178.175 8.04503 180.185 7.52003 182.495 7.52003ZM182.495 11.885C179.045 11.885 177.32 14.615 177.32 20.075C177.32 22.895 177.74 24.98 178.58 26.33C179.45 27.65 180.74 28.31 182.45 28.31C184.16 28.31 185.435 27.635 186.275 26.285C187.145 24.935 187.58 22.865 187.58 20.075C187.58 17.285 187.145 15.23 186.275 13.91C185.435 12.56 184.175 11.885 182.495 11.885Z" fill="#270603"/>
<path d="M206.569 7.52003C209.779 7.52003 212.599 8.46503 215.029 10.355L212.779 13.73C210.739 12.44 208.744 11.795 206.794 11.795C205.654 11.795 204.769 12.02 204.139 12.47C203.509 12.89 203.194 13.46 203.194 14.18C203.194 14.72 203.329 15.17 203.599 15.53C203.869 15.89 204.349 16.235 205.039 16.565C205.759 16.865 206.809 17.21 208.189 17.6C210.769 18.29 212.674 19.205 213.904 20.345C215.164 21.485 215.794 23.075 215.794 25.115C215.794 27.485 214.834 29.345 212.914 30.695C210.994 32.015 208.609 32.675 205.759 32.675C203.809 32.675 202.024 32.375 200.404 31.775C198.814 31.175 197.434 30.35 196.264 29.3L199.144 26.06C201.214 27.62 203.374 28.4 205.624 28.4C206.914 28.4 207.934 28.145 208.684 27.635C209.464 27.125 209.854 26.42 209.854 25.52C209.854 24.83 209.704 24.29 209.404 23.9C209.134 23.48 208.624 23.12 207.874 22.82C207.154 22.49 206.014 22.1 204.454 21.65C202.024 20.99 200.239 20.075 199.099 18.905C197.959 17.705 197.389 16.22 197.389 14.45C197.389 13.13 197.764 11.945 198.514 10.895C199.294 9.84503 200.374 9.02003 201.754 8.42003C203.164 7.82003 204.769 7.52003 206.569 7.52003Z" fill="#270603"/>
<path d="M234.09 30.875C233.25 31.475 232.305 31.925 231.255 32.225C230.235 32.525 229.185 32.675 228.105 32.675C225.765 32.645 223.98 31.985 222.75 30.695C221.55 29.375 220.95 27.44 220.95 24.89V12.335H217.215V8.19503H220.95V2.93003L226.71 2.25503V8.19503H232.245L231.66 12.335H226.71V24.755C226.71 25.925 226.905 26.765 227.295 27.275C227.715 27.785 228.36 28.04 229.23 28.04C230.1 28.04 231.045 27.755 232.065 27.185L234.09 30.875Z" fill="#270603"/>
<path d="M254.486 25.7C254.486 26.63 254.621 27.32 254.891 27.77C255.191 28.19 255.656 28.52 256.286 28.76L255.071 32.585C253.721 32.465 252.611 32.135 251.741 31.595C250.901 31.055 250.256 30.23 249.806 29.12C248.996 30.32 247.976 31.22 246.746 31.82C245.546 32.39 244.196 32.675 242.696 32.675C240.326 32.675 238.451 32 237.071 30.65C235.691 29.3 235.001 27.53 235.001 25.34C235.001 22.76 235.931 20.795 237.791 19.445C239.681 18.065 242.366 17.375 245.846 17.375H248.816V16.025C248.816 14.495 248.456 13.43 247.736 12.83C247.046 12.2 245.921 11.885 244.361 11.885C242.621 11.885 240.521 12.305 238.061 13.145L236.711 9.23003C239.681 8.09003 242.561 7.52003 245.351 7.52003C251.441 7.52003 254.486 10.25 254.486 15.71V25.7ZM244.226 28.49C246.176 28.49 247.706 27.515 248.816 25.565V20.75H246.431C242.711 20.75 240.851 22.13 240.851 24.89C240.851 26.03 241.136 26.915 241.706 27.545C242.276 28.175 243.116 28.49 244.226 28.49Z" fill="#270603"/>
</svg>
